PathFileType	4	(X/Y/Z)	s11c0203.trc
DataRate	CameraRate	NumFrames	NumMarkers	Units	OrigDataRate	OrigDataStartFrame	OrigNumFrames
200	200	4	48	mm	200	1250	2000
Frame#	Time	racr			lacr			c7			jug			rlel			rdr			llel			ldr			s2			lic			ric			lasi			rasi			rpsi			lpsi			rgt			lgt			rth1			rth2			rth3			rth4			rlfc			rmfc			rsh1			rsh2			rsh3			rsh4			rlmal			rcal			rtoe			rmt5			lth1			lth2			lth4			lth3			llfc			lmfc			llmal			lcal			lmt5			lsh1			lsh2			lsh3			lsh4			ltoe			SBIKE			LBIKE			RBIKE			
		X1	Y1	Z1	X2	Y2	Z2	X3	Y3	Z3	X4	Y4	Z4	X5	Y5	Z5	X6	Y6	Z6	X7	Y7	Z7	X8	Y8	Z8	X9	Y9	Z9	X10	Y10	Z10	X11	Y11	Z11	X12	Y12	Z12	X13	Y13	Z13	X14	Y14	Z14	X15	Y15	Z15	X16	Y16	Z16	X17	Y17	Z17	X18	Y18	Z18	X19	Y19	Z19	X20	Y20	Z20	X21	Y21	Z21	X22	Y22	Z22	X23	Y23	Z23	X24	Y24	Z24	X25	Y25	Z25	X26	Y26	Z26	X27	Y27	Z27	X28	Y28	Z28	X29	Y29	Z29	X30	Y30	Z30	X31	Y31	Z31	X32	Y32	Z32	X33	Y33	Z33	X34	Y34	Z34	X35	Y35	Z35	X36	Y36	Z36	X37	Y37	Z37	X38	Y38	Z38	X39	Y39	Z39	X40	Y40	Z40	X41	Y41	Z41	X42	Y42	Z42	X43	Y43	Z43	X44	Y44	Z44	X45	Y45	Z45	X46	Y46	Z46	X47	Y47	Z47	X48	Y48	Z48	
1250	6.2500	464.379512	1351.297138	-44.353406	513.671423	1333.436493	-367.357857	429.742113	1461.829279	-216.547770	457.312512	1281.715896	-214.315085	514.017861	1102.203621	65.710250	745.308917	969.559160	-44.796000	523.590102	1112.058598	-578.468431	763.379456	950.574817	-458.138189	-105.247260	1188.330086	-293.898313	119.650578	1201.882064	-480.743108	92.408248	1218.405190	-72.836662	157.492182	1137.416201	-455.447816	136.894933	1159.652365	-116.387592	-67.036094	1274.562867	-244.946344	-62.345501	1261.944843	-337.122839	69.427792	1099.924723	-55.304638	28.325913	1053.108670	-483.770295	200.525496	1035.192736	-57.829604	288.521007	1021.941475	-66.288752	356.838605	966.911232	-75.947186	302.061826	1054.752349	-78.246983	454.943144	913.109894	-91.625035	463.023388	885.837841	-219.105367	402.427108	758.823657	-75.042676	389.339290	672.319553	-89.874657	338.207646	602.272514	-85.698242	413.800924	664.878409	-120.425763	279.138913	475.352319	-100.339941	212.126358	453.182027	-143.948877	498.561170	433.236838	-149.709893	432.767464	401.283916	-77.978571	129.840015	940.673695	-495.498627	199.587633	891.589179	-489.148881	228.383760	914.329813	-484.703310	236.733128	810.147381	-477.492234	308.148415	702.277827	-451.031687	325.248159	699.982069	-324.700346	14.501648	390.973700	-420.657693	-50.872048	375.233736	-379.339675	110.454611	245.135985	-450.557880	219.047696	616.962668	-465.533457	184.167028	541.037501	-447.930227	113.311116	488.722846	-439.293509	211.339071	522.375579	-426.544848	208.360479	225.016479	-385.888201	-216.046454	949.412870	-258.811522	-18.104084	80.488921	-460.934118	-18.180520	80.797839	-62.190264	
1251	6.2550	464.121915	1353.302646	-45.091362	513.224674	1333.154671	-369.290665	429.700395	1461.989339	-217.989479	457.665987	1282.189926	-214.447495	513.794882	1103.799803	64.434862	744.905773	969.775837	-44.971955	521.301964	1112.082087	-577.994111	762.966106	951.361866	-460.559197	-105.490926	1186.823758	-294.387188	119.390306	1201.427341	-480.251400	93.130651	1216.009408	-72.809792	157.568183	1137.773296	-455.224415	138.210776	1157.303471	-116.003611	-67.096721	1272.911424	-245.356922	-62.588751	1260.419663	-337.556808	70.250351	1095.930013	-56.529733	30.020013	1052.299568	-483.775922	200.714918	1029.115818	-58.363769	288.296522	1013.756271	-66.578504	355.276998	957.082044	-76.785137	302.798075	1046.315891	-78.122016	451.341979	900.109193	-92.287569	458.781787	873.193334	-218.550649	399.415562	745.522806	-75.999742	388.205120	658.701658	-91.210627	338.566195	587.754810	-86.883406	412.414072	652.164998	-121.689856	281.773852	462.577823	-100.973253	214.929710	439.341119	-144.751733	501.664724	424.727502	-149.735663	436.358373	391.597416	-78.139689	133.973054	942.035956	-495.122321	204.608794	894.198481	-488.445381	232.963367	917.403786	-483.661030	243.173949	813.435639	-476.770631	316.321653	708.202509	-450.713758	330.965443	705.675853	-324.665851	17.171024	403.435892	-420.515402	-48.201616	390.617133	-379.285191	107.542210	254.058875	-450.414297	225.575695	625.031092	-465.285148	189.387429	549.441635	-447.376512	117.896661	498.431924	-439.045450	216.225270	529.762708	-426.143285	204.574156	229.808875	-385.983244	-215.996546	949.416733	-258.859582	-18.108524	80.461540	-460.929502	-18.173572	80.787633	-62.198368	
1252	6.2600	464.013395	1355.149063	-46.016008	512.761369	1333.243479	-371.463928	429.569777	1462.441573	-219.519914	458.160638	1282.807964	-214.731442	513.987099	1105.459582	63.230001	744.614791	970.057034	-45.146541	514.550968	1111.361389	-580.077907	762.240315	952.355094	-462.820470	-105.704793	1185.246835	-294.675467	119.234781	1201.044687	-479.781284	93.805977	1213.771980	-72.598296	157.754554	1137.803066	-454.769199	139.514699	1155.192451	-115.348875	-67.209068	1271.151743	-245.438563	-62.738871	1258.929548	-337.699109	71.262973	1092.029478	-57.313690	31.863402	1051.632629	-483.760523	201.201729	1022.979677	-58.920846	288.273868	1005.656334	-66.973532	353.811623	947.395018	-77.708223	303.672955	1037.824685	-78.226609	447.884410	887.639647	-93.330922	453.801696	860.894431	-219.279268	396.057094	733.948630	-76.411327	387.908389	646.899311	-92.653626	340.561103	574.199645	-89.796220	412.082318	641.790963	-123.372245	284.055867	450.175518	-101.739628	217.590634	425.813334	-145.515744	504.244226	415.874912	-149.918222	439.405950	381.806106	-78.357360	138.133795	943.673942	-494.720234	209.772609	897.232073	-487.873205	237.540607	921.074068	-482.726027	249.967063	817.209882	-476.236975	325.257606	715.122032	-450.528982	337.478070	711.861053	-324.731051	20.807858	416.192114	-420.118595	-44.423736	406.104506	-379.132802	105.345775	263.172475	-450.326509	232.588916	633.491966	-464.950121	195.279753	558.411746	-447.141498	123.064091	508.565455	-438.757907	221.954724	538.350681	-426.366731	201.126644	234.762292	-386.066684	-215.959862	949.419813	-258.833539	-18.097483	80.451079	-460.929773	-18.156071	80.779320	-62.197617	
1253	6.2650	464.151767	1356.863358	-46.987705	512.243532	1333.748464	-373.767239	429.495631	1462.822783	-220.690781	458.721716	1283.546193	-215.135510	513.918259	1107.117261	61.805882	744.443129	970.448203	-45.501545	514.047942	1111.416864	-578.789383	761.244741	952.969158	-464.962080	-105.876561	1183.725711	-294.677295	119.067536	1200.699996	-479.099477	94.509455	1211.872095	-72.169090	158.122492	1137.875226	-454.199024	140.721419	1153.237493	-114.218591	-67.324498	1269.424193	-245.159031	-62.787839	1257.541939	-337.497161	72.418123	1088.109552	-57.915783	33.571769	1051.246067	-483.538511	201.655701	1016.921215	-59.147856	288.363436	997.248563	-67.272761	352.451575	937.790265	-78.632043	304.446972	1029.549923	-78.433348	444.592503	875.305272	-94.398403	448.486104	849.232956	-220.261836	393.296789	723.394925	-76.851555	387.884716	636.390297	-93.054517	341.477811	562.515998	-92.992810	411.723914	631.921867	-124.737707	285.828499	438.010203	-102.208367	218.935778	412.900115	-145.589763	506.250458	406.659082	-149.956303	441.756785	371.978358	-78.513452	142.313793	945.454078	-494.282726	215.083661	900.803211	-487.386844	242.234349	925.285021	-481.926213	257.224294	821.816627	-475.849897	334.520831	722.737157	-450.489776	345.174064	718.354328	-324.522092	25.429490	429.032673	-419.451997	-39.489533	421.536516	-378.946547	103.886242	272.343619	-450.246394	240.070389	642.310555	-464.636165	201.713870	567.891170	-446.878421	128.780231	519.000491	-438.428769	228.243870	547.367034	-426.438571	198.348521	239.642887	-386.037154	-215.919663	949.453673	-258.802404	-18.080047	80.465409	-460.917995	-18.148938	80.770648	-62.214424	
